<svg xmlns="http://www.w3.org/2000/svg" viewBox="0 0 1000 746" width="1000" height="746"><path d="M712.0 232.0 L806.8 248.0 L904.2 226.3 L998.0 269.2 L1092.6 286.8 L1191.4 266.6 L1285.3 168.2 L1384.9 240.7" fill="none" stroke="#000000" stroke-opacity="0.22" stroke-width="3.2" stroke-linejoin="round"/><path d="M712.0 232.0 L781.7 324.4 L884.8 385.9 L1000.0 425.6 L1083.1 508.5 L1175.3 578.2" fill="none" stroke="#000000" stroke-opacity="0.22" stroke-width="3.2" stroke-linejoin="round"/><path d="M712.0 232.0 L734.3 317.9 L706.9 409.4 L707.1 498.2 L683.8 585.9 L755.6 673.6 L772.0 761.1" fill="none" stroke="#000000" stroke-opacity="0.22" stroke-width="3.2" stroke-linejoin="round"/><path d="M712.0 232.0 L720.9 267.9 L741.6 299.7 L777.5 321.4 L791.1 356.8 L827.0 376.6 L824.6 423.0 L829.3 462.5" fill="none" stroke="#000000" stroke-opacity="0.22" stroke-width="3.2" stroke-linejoin="round"/><path d="M712.0 232.0 L663.3 291.1 L611.7 347.8 L578.6 419.1 L546.6 489.9 L454.2 515.3 L406.4 575.3" fill="none" stroke="#000000" stroke-opacity="0.22" stroke-width="3.2" stroke-linejoin="round"/><path d="M712.0 232.0 L604.5 243.0 L496.8 252.4 L408.0 344.7 L288.9 320.8 L173.0 271.6" fill="none" stroke="#000000" stroke-opacity="0.22" stroke-width="3.2" stroke-linejoin="round"/><path d="M712.0 232.0 L642.4 207.8 L580.2 166.0 L539.0 94.4 L446.0 105.1 L402.3 32.3 L296.9 79.6" fill="none" stroke="#000000" stroke-opacity="0.22" stroke-width="3.2" stroke-linejoin="round"/><path d="M712.0 232.0 L695.6 177.0 L676.7 122.8 L675.2 63.9 L657.4 9.1 L600.9 -32.5 L579.8 -85.9 L498.4 -108.1" fill="none" stroke="#000000" stroke-opacity="0.22" stroke-width="3.2" stroke-linejoin="round"/><path d="M712.0 232.0 L677.7 196.1 L638.2 165.5 L619.5 115.1 L574.2 88.7 L537.0 55.6" fill="none" stroke="#000000" stroke-opacity="0.22" stroke-width="3.2" stroke-linejoin="round"/><path d="M712.0 232.0 L746.1 139.7 L792.7 52.5 L814.5 -44.8 L889.5 -119.3 L934.5 -206.8 L1025.4 -268.3 L1026.0 -381.0" fill="none" stroke="#000000" stroke-opacity="0.22" stroke-width="3.2" stroke-linejoin="round"/><path d="M712.0 232.0 L851.1 189.6 L994.6 162.9 L1090.8 15.4 L1238.3 -16.1 L1315.2 -174.2" fill="none" stroke="#000000" stroke-opacity="0.22" stroke-width="3.2" stroke-linejoin="round"/><path d="M712.0 232.0 L779.3 216.1 L836.2 171.3 L893.4 131.5 L965.2 120.9 L994.6 32.9" fill="none" stroke="#000000" stroke-opacity="0.22" stroke-width="3.2" stroke-linejoin="round"/><path d="M754.5 232.0 L749.8 250.3 L736.4 264.5 L716.6 266.7 L693.4 277.1 L681.1 257.2 L662.6 243.2 L673.7 223.3 L674.8 201.7 L696.0 193.2 L718.5 183.1 L738.8 196.3 L747.3 214.9 L759.2 232.0 Z" fill="none" stroke="#000000" stroke-opacity="0.18" stroke-width="2.6"/><path d="M821.2 232.0 L784.4 266.9 L768.3 307.1 L724.4 325.8 L677.9 314.6 L630.5 298.4 L628.4 251.0 L616.6 210.4 L648.9 180.6 L675.5 143.3 L722.0 156.5 L767.5 158.0 L798.6 190.2 L793.9 232.0 Z" fill="none" stroke="#000000" stroke-opacity="0.18" stroke-width="2.6"/><path d="M893.1 232.0 L867.8 307.2 L810.8 363.7 L732.7 389.2 L658.1 362.6 L603.5 320.4 L573.0 263.5 L554.2 196.2 L592.8 134.9 L657.9 100.7 L731.0 88.0 L820.7 87.1 L864.2 158.5 L899.1 232.0 Z" fill="none" stroke="#000000" stroke-opacity="0.18" stroke-width="2.6"/><path d="M712.0 232.0 L806.8 248.0 L904.2 226.3 L998.0 269.2 L1092.6 286.8 L1191.4 266.6 L1285.3 168.2 L1384.9 240.7" fill="none" stroke="#ffffff" stroke-opacity="0.85" stroke-width="1.4" stroke-linejoin="round" stroke-linecap="round"/><path d="M712.0 232.0 L781.7 324.4 L884.8 385.9 L1000.0 425.6 L1083.1 508.5 L1175.3 578.2" fill="none" stroke="#ffffff" stroke-opacity="0.85" stroke-width="1.4" stroke-linejoin="round" stroke-linecap="round"/><path d="M712.0 232.0 L734.3 317.9 L706.9 409.4 L707.1 498.2 L683.8 585.9 L755.6 673.6 L772.0 761.1" fill="none" stroke="#ffffff" stroke-opacity="0.85" stroke-width="1.4" stroke-linejoin="round" stroke-linecap="round"/><path d="M712.0 232.0 L720.9 267.9 L741.6 299.7 L777.5 321.4 L791.1 356.8 L827.0 376.6 L824.6 423.0 L829.3 462.5" fill="none" stroke="#ffffff" stroke-opacity="0.85" stroke-width="1.4" stroke-linejoin="round" stroke-linecap="round"/><path d="M712.0 232.0 L663.3 291.1 L611.7 347.8 L578.6 419.1 L546.6 489.9 L454.2 515.3 L406.4 575.3" fill="none" stroke="#ffffff" stroke-opacity="0.85" stroke-width="1.4" stroke-linejoin="round" stroke-linecap="round"/><path d="M712.0 232.0 L604.5 243.0 L496.8 252.4 L408.0 344.7 L288.9 320.8 L173.0 271.6" fill="none" stroke="#ffffff" stroke-opacity="0.85" stroke-width="1.4" stroke-linejoin="round" stroke-linecap="round"/><path d="M712.0 232.0 L642.4 207.8 L580.2 166.0 L539.0 94.4 L446.0 105.1 L402.3 32.3 L296.9 79.6" fill="none" stroke="#ffffff" stroke-opacity="0.85" stroke-width="1.4" stroke-linejoin="round" stroke-linecap="round"/><path d="M712.0 232.0 L695.6 177.0 L676.7 122.8 L675.2 63.9 L657.4 9.1 L600.9 -32.5 L579.8 -85.9 L498.4 -108.1" fill="none" stroke="#ffffff" stroke-opacity="0.85" stroke-width="1.4" stroke-linejoin="round" stroke-linecap="round"/><path d="M712.0 232.0 L677.7 196.1 L638.2 165.5 L619.5 115.1 L574.2 88.7 L537.0 55.6" fill="none" stroke="#ffffff" stroke-opacity="0.85" stroke-width="1.4" stroke-linejoin="round" stroke-linecap="round"/><path d="M712.0 232.0 L746.1 139.7 L792.7 52.5 L814.5 -44.8 L889.5 -119.3 L934.5 -206.8 L1025.4 -268.3 L1026.0 -381.0" fill="none" stroke="#ffffff" stroke-opacity="0.85" stroke-width="1.4" stroke-linejoin="round" stroke-linecap="round"/><path d="M712.0 232.0 L851.1 189.6 L994.6 162.9 L1090.8 15.4 L1238.3 -16.1 L1315.2 -174.2" fill="none" stroke="#ffffff" stroke-opacity="0.85" stroke-width="1.4" stroke-linejoin="round" stroke-linecap="round"/><path d="M712.0 232.0 L779.3 216.1 L836.2 171.3 L893.4 131.5 L965.2 120.9 L994.6 32.9" fill="none" stroke="#ffffff" stroke-opacity="0.85" stroke-width="1.4" stroke-linejoin="round" stroke-linecap="round"/><path d="M754.5 232.0 L749.8 250.3 L736.4 264.5 L716.6 266.7 L693.4 277.1 L681.1 257.2 L662.6 243.2 L673.7 223.3 L674.8 201.7 L696.0 193.2 L718.5 183.1 L738.8 196.3 L747.3 214.9 L759.2 232.0 Z" fill="none" stroke="#ffffff" stroke-opacity="0.7" stroke-width="1.1" stroke-linejoin="round" stroke-linecap="round"/><path d="M821.2 232.0 L784.4 266.9 L768.3 307.1 L724.4 325.8 L677.9 314.6 L630.5 298.4 L628.4 251.0 L616.6 210.4 L648.9 180.6 L675.5 143.3 L722.0 156.5 L767.5 158.0 L798.6 190.2 L793.9 232.0 Z" fill="none" stroke="#ffffff" stroke-opacity="0.7" stroke-width="1.1" stroke-linejoin="round" stroke-linecap="round"/><path d="M893.1 232.0 L867.8 307.2 L810.8 363.7 L732.7 389.2 L658.1 362.6 L603.5 320.4 L573.0 263.5 L554.2 196.2 L592.8 134.9 L657.9 100.7 L731.0 88.0 L820.7 87.1 L864.2 158.5 L899.1 232.0 Z" fill="none" stroke="#ffffff" stroke-opacity="0.7" stroke-width="1.1" stroke-linejoin="round" stroke-linecap="round"/><path d="M712 232 L724.9 210.5" fill="none" stroke="#ffffff" stroke-opacity="0.9" stroke-width="1" stroke-linejoin="round" stroke-linecap="round"/><path d="M712 232 L707.6 217.5" fill="none" stroke="#ffffff" stroke-opacity="0.9" stroke-width="1" stroke-linejoin="round" stroke-linecap="round"/><path d="M712 232 L689.2 239.0" fill="none" stroke="#ffffff" stroke-opacity="0.9" stroke-width="1" stroke-linejoin="round" stroke-linecap="round"/><path d="M712 232 L716.2 199.0" fill="none" stroke="#ffffff" stroke-opacity="0.9" stroke-width="1" stroke-linejoin="round" stroke-linecap="round"/><path d="M712 232 L720.1 224.1" fill="none" stroke="#ffffff" stroke-opacity="0.9" stroke-width="1" stroke-linejoin="round" stroke-linecap="round"/><path d="M712 232 L727.3 218.1" fill="none" stroke="#ffffff" stroke-opacity="0.9" stroke-width="1" stroke-linejoin="round" stroke-linecap="round"/><path d="M712 232 L679.3 222.8" fill="none" stroke="#ffffff" stroke-opacity="0.9" stroke-width="1" stroke-linejoin="round" stroke-linecap="round"/><path d="M712 232 L725.1 224.5" fill="none" stroke="#ffffff" stroke-opacity="0.9" stroke-width="1" stroke-linejoin="round" stroke-linecap="round"/><path d="M712 232 L678.4 240.7" fill="none" stroke="#ffffff" stroke-opacity="0.9" stroke-width="1" stroke-linejoin="round" stroke-linecap="round"/><path d="M712 232 L722.7 221.4" fill="none" stroke="#ffffff" stroke-opacity="0.9" stroke-width="1" stroke-linejoin="round" stroke-linecap="round"/><path d="M712 232 L706.6 237.4" fill="none" stroke="#ffffff" stroke-opacity="0.9" stroke-width="1" stroke-linejoin="round" stroke-linecap="round"/><path d="M712 232 L680.8 237.7" fill="none" stroke="#ffffff" stroke-opacity="0.9" stroke-width="1" stroke-linejoin="round" stroke-linecap="round"/><path d="M712 232 L727.3 222.3" fill="none" stroke="#ffffff" stroke-opacity="0.9" stroke-width="1" stroke-linejoin="round" stroke-linecap="round"/><path d="M712 232 L734.7 226.7" fill="none" stroke="#ffffff" stroke-opacity="0.9" stroke-width="1" stroke-linejoin="round" stroke-linecap="round"/><circle cx="712" cy="232" r="7" fill="#ffffff" fill-opacity="0.9"/><circle cx="712" cy="232" r="16" fill="none" stroke="#ffffff" stroke-opacity="0.5" stroke-width="1.4"/></svg>